<?xml version="1.0" encoding="utf-8"?>
<!-- Generator: Adobe Illustrator 16.0.0, SVG Export Plug-In . SVG Version: 6.00 Build 0)  -->
<!DOCTYPE svg PUBLIC "-//W3C//DTD SVG 1.1//EN" "http://www.w3.org/Graphics/SVG/1.1/DTD/svg11.dtd">
<svg version="1.1" id="Layer_1" xmlns="http://www.w3.org/2000/svg" xmlns:xlink="http://www.w3.org/1999/xlink" x="0px" y="0px"
	 width="313.806px" height="26.98px" viewBox="0 0 313.806 26.98" enable-background="new 0 0 313.806 26.98" xml:space="preserve">
<g>
	<g>
		<path fill="#FFFFFF" d="M127.377,20.611c-1.057,1.064-2.334,1.598-3.836,1.598s-2.781-0.533-3.84-1.598
			c-1.059-1.062-1.588-2.346-1.588-3.85c0-1.496,0.529-2.771,1.588-3.824c1.059-1.055,2.338-1.582,3.84-1.582
			s2.779,0.527,3.836,1.582c1.061,1.053,1.588,2.328,1.588,3.824C128.965,18.266,128.438,19.549,127.377,20.611 M120.26,13.469
			c-0.904,0.912-1.355,2.012-1.355,3.303c0,1.301,0.451,2.406,1.342,3.324c0.91,0.914,2.006,1.375,3.295,1.375
			s2.387-0.461,3.291-1.375c0.896-0.918,1.342-2.023,1.342-3.324c0-1.291-0.445-2.391-1.348-3.303
			c-0.9-0.916-1.996-1.375-3.285-1.375C122.254,12.094,121.16,12.553,120.26,13.469 M125.342,19.369
			c-0.465,0.365-1.02,0.549-1.662,0.549c-0.811,0-1.504-0.291-2.082-0.871c-0.572-0.582-0.861-1.354-0.861-2.32
			c0-0.902,0.26-1.654,0.777-2.26c0.52-0.605,1.197-0.908,2.035-0.908c0.523,0,0.996,0.105,1.424,0.316
			c0.73,0.379,1.129,1.01,1.193,1.893h-0.893c-0.045-0.371-0.197-0.691-0.467-0.961c-0.262-0.271-0.648-0.406-1.158-0.406
			c-0.709,0-1.227,0.318-1.545,0.959c-0.207,0.408-0.312,0.85-0.312,1.324c0,0.674,0.17,1.24,0.502,1.703
			c0.332,0.459,0.811,0.688,1.436,0.688c0.406,0,0.742-0.105,1.016-0.32c0.266-0.215,0.457-0.523,0.564-0.936h0.893
			C126.09,18.482,125.803,19,125.342,19.369"/>
		<path fill="#FFFFFF" d="M134.365,19.83c0.334-0.676,0.971-1.289,1.918-1.84l1.42-0.818c0.637-0.371,1.082-0.688,1.34-0.949
			c0.402-0.41,0.602-0.879,0.602-1.404c0-0.617-0.184-1.111-0.553-1.471c-0.367-0.361-0.861-0.543-1.479-0.543
			c-0.908,0-1.541,0.344-1.889,1.037c-0.186,0.369-0.291,0.883-0.309,1.539h-1.354c0.016-0.92,0.188-1.674,0.512-2.252
			c0.572-1.023,1.59-1.537,3.049-1.537c1.213,0,2.096,0.326,2.654,0.98c0.561,0.658,0.84,1.385,0.84,2.189
			c0,0.846-0.297,1.57-0.896,2.17c-0.342,0.352-0.961,0.775-1.854,1.271l-1.01,0.562c-0.482,0.268-0.861,0.52-1.139,0.76
			c-0.492,0.43-0.803,0.906-0.93,1.426h5.773v1.258h-7.258C133.85,21.297,134.043,20.504,134.365,19.83"/>
		<path fill="#FFFFFF" d="M148.807,13.32c0.473,0.873,0.711,2.066,0.711,3.584c0,1.438-0.219,2.627-0.645,3.568
			c-0.621,1.348-1.635,2.023-3.043,2.023c-1.27,0-2.215-0.551-2.836-1.654c-0.518-0.922-0.779-2.158-0.779-3.709
			c0-1.203,0.158-2.232,0.469-3.096c0.582-1.605,1.633-2.408,3.154-2.408C147.207,11.629,148.197,12.195,148.807,13.32
			 M147.469,20.369c0.408-0.611,0.613-1.748,0.613-3.412c0-1.203-0.148-2.189-0.443-2.967c-0.297-0.777-0.869-1.162-1.725-1.162
			c-0.783,0-1.355,0.365-1.721,1.102c-0.363,0.736-0.543,1.822-0.543,3.254c0,1.078,0.115,1.945,0.348,2.602
			c0.354,0.998,0.961,1.5,1.818,1.5C146.508,21.285,147.061,20.979,147.469,20.369"/>
		<path fill="#FFFFFF" d="M151.607,14.717v-1.02c0.961-0.094,1.629-0.25,2.008-0.469c0.381-0.219,0.664-0.738,0.85-1.555h1.049
			v10.535h-1.418v-7.492H151.607z"/>
		<path fill="#FFFFFF" d="M0,10.115h5.709c1.553,0,2.66,0.461,3.318,1.385c0.385,0.545,0.578,1.176,0.578,1.887
			c0,0.834-0.236,1.516-0.709,2.049c-0.248,0.281-0.602,0.539-1.059,0.771c0.672,0.26,1.184,0.549,1.516,0.873
			c0.594,0.574,0.891,1.369,0.891,2.381c0,0.852-0.273,1.621-0.803,2.311c-0.803,1.029-2.076,1.545-3.828,1.545H0V10.115z
			 M5.041,15.695c0.762,0,1.354-0.105,1.777-0.314c0.664-0.328,0.998-0.922,0.998-1.777c0-0.863-0.352-1.445-1.062-1.744
			c-0.398-0.168-0.994-0.254-1.779-0.254H1.752v4.09H5.041z M5.643,21.787c1.109,0,1.895-0.314,2.367-0.951
			c0.299-0.402,0.443-0.885,0.443-1.455c0-0.959-0.43-1.611-1.297-1.961c-0.457-0.186-1.064-0.277-1.82-0.277H1.752v4.645H5.643z"/>
		<path fill="#FFFFFF" d="M17.262,17.492c0.369-0.047,0.617-0.205,0.746-0.465c0.07-0.146,0.107-0.354,0.107-0.625
			c0-0.553-0.195-0.953-0.586-1.203c-0.393-0.25-0.955-0.375-1.684-0.375c-0.842,0-1.443,0.229-1.795,0.688
			c-0.193,0.252-0.322,0.629-0.387,1.127h-1.508c0.029-1.189,0.412-2.016,1.156-2.48c0.736-0.467,1.592-0.697,2.566-0.697
			c1.133,0,2.053,0.213,2.758,0.646c0.701,0.432,1.051,1.1,1.051,2.012v5.545c0,0.166,0.033,0.301,0.104,0.402
			c0.068,0.104,0.215,0.154,0.434,0.154c0.074,0,0.156-0.004,0.244-0.014c0.09-0.01,0.186-0.021,0.285-0.037v1.191
			c-0.25,0.072-0.441,0.117-0.572,0.133c-0.131,0.02-0.312,0.029-0.537,0.029c-0.559,0-0.963-0.199-1.217-0.594
			c-0.133-0.209-0.223-0.506-0.277-0.889c-0.33,0.43-0.803,0.805-1.418,1.123c-0.619,0.316-1.295,0.475-2.043,0.475
			c-0.891,0-1.619-0.271-2.186-0.812c-0.566-0.539-0.848-1.217-0.848-2.031c0-0.893,0.279-1.582,0.832-2.074
			c0.559-0.49,1.289-0.793,2.193-0.904L17.262,17.492z M13.857,21.861c0.34,0.27,0.744,0.404,1.211,0.404
			c0.568,0,1.123-0.133,1.652-0.395c0.9-0.439,1.35-1.152,1.35-2.146v-1.299c-0.199,0.127-0.453,0.23-0.762,0.316
			c-0.311,0.082-0.615,0.141-0.916,0.178l-0.977,0.131c-0.588,0.074-1.027,0.195-1.324,0.363c-0.496,0.281-0.748,0.729-0.748,1.344
			C13.344,21.225,13.516,21.592,13.857,21.861"/>
		<path fill="#FFFFFF" d="M22.338,13.693h1.539v1.363c0.453-0.561,0.938-0.967,1.443-1.213c0.51-0.244,1.078-0.365,1.701-0.365
			c1.363,0,2.287,0.475,2.768,1.428c0.262,0.521,0.393,1.268,0.393,2.236v6.174h-1.645v-6.064c0-0.59-0.082-1.064-0.258-1.422
			c-0.289-0.598-0.811-0.896-1.564-0.896c-0.383,0-0.697,0.037-0.943,0.115c-0.441,0.133-0.836,0.395-1.17,0.793
			c-0.268,0.318-0.441,0.645-0.523,0.982c-0.08,0.338-0.121,0.822-0.121,1.451v5.041h-1.619V13.693z"/>
		<path fill="#FFFFFF" d="M38.93,14.203c0.682,0.529,1.09,1.436,1.227,2.725h-1.572c-0.096-0.592-0.314-1.086-0.656-1.479
			c-0.34-0.393-0.887-0.588-1.645-0.588c-1.027,0-1.766,0.502-2.207,1.506c-0.289,0.652-0.432,1.457-0.432,2.414
			c0,0.963,0.203,1.775,0.609,2.434c0.406,0.66,1.049,0.986,1.922,0.986c0.67,0,1.203-0.203,1.598-0.613
			c0.389-0.408,0.662-0.967,0.811-1.678h1.572c-0.178,1.277-0.629,2.207-1.346,2.799c-0.719,0.592-1.641,0.885-2.76,0.885
			c-1.256,0-2.26-0.459-3.008-1.377c-0.752-0.922-1.127-2.07-1.127-3.447c0-1.689,0.412-3.002,1.232-3.945
			c0.82-0.941,1.867-1.408,3.135-1.408C37.367,13.416,38.252,13.678,38.93,14.203"/>
		<path fill="#FFFFFF" d="M46.934,17.492c0.373-0.047,0.619-0.205,0.744-0.465c0.076-0.146,0.107-0.354,0.107-0.625
			c0-0.553-0.195-0.953-0.586-1.203c-0.389-0.25-0.951-0.375-1.684-0.375c-0.838,0-1.439,0.229-1.793,0.688
			c-0.197,0.252-0.326,0.629-0.385,1.127h-1.51c0.031-1.189,0.414-2.016,1.154-2.48c0.736-0.467,1.596-0.697,2.57-0.697
			c1.133,0,2.049,0.213,2.758,0.646c0.699,0.432,1.051,1.1,1.051,2.012v5.545c0,0.166,0.031,0.301,0.1,0.402
			c0.07,0.104,0.215,0.154,0.438,0.154c0.076,0,0.152-0.004,0.242-0.014s0.188-0.021,0.287-0.037v1.191
			c-0.252,0.072-0.443,0.117-0.574,0.133c-0.135,0.02-0.312,0.029-0.537,0.029c-0.559,0-0.961-0.199-1.217-0.594
			c-0.131-0.209-0.223-0.506-0.277-0.889c-0.33,0.43-0.801,0.805-1.42,1.123c-0.615,0.316-1.295,0.475-2.039,0.475
			c-0.895,0-1.619-0.271-2.188-0.812c-0.564-0.539-0.848-1.217-0.848-2.031c0-0.893,0.279-1.582,0.834-2.074
			c0.557-0.49,1.291-0.793,2.193-0.904L46.934,17.492z M43.527,21.861c0.34,0.27,0.746,0.404,1.213,0.404
			c0.568,0,1.121-0.133,1.652-0.395c0.9-0.439,1.35-1.152,1.35-2.146v-1.299c-0.199,0.127-0.451,0.23-0.764,0.316
			c-0.309,0.082-0.617,0.141-0.914,0.178l-0.979,0.131c-0.586,0.074-1.023,0.195-1.32,0.363c-0.5,0.281-0.75,0.729-0.75,1.344
			C43.016,21.225,43.186,21.592,43.527,21.861"/>
		<polygon fill="#FFFFFF" points="51.652,19.381 51.652,17.871 55.566,17.871 55.566,13.926 57.107,13.926 57.107,17.871 
			61.023,17.871 61.023,19.381 57.107,19.381 57.107,23.316 55.566,23.316 55.566,19.381 		"/>
		<path fill="#FFFFFF" d="M68.043,10.115h2.561L74.4,21.277l3.766-11.162h2.543v13.201h-1.707v-7.791c0-0.27,0.01-0.715,0.021-1.34
			c0.01-0.621,0.016-1.291,0.016-2.002l-3.77,11.133h-1.768l-3.809-11.133v0.404c0,0.322,0.01,0.812,0.025,1.477
			c0.02,0.66,0.029,1.15,0.029,1.461v7.791h-1.705V10.115z"/>
		<path fill="#FFFFFF" d="M90.172,14.654c0.852,0.824,1.275,2.039,1.275,3.645c0,1.551-0.373,2.83-1.125,3.842
			c-0.748,1.01-1.908,1.518-3.486,1.518c-1.316,0-2.359-0.449-3.135-1.344c-0.77-0.895-1.156-2.098-1.156-3.605
			c0-1.615,0.406-2.9,1.223-3.859c0.812-0.955,1.906-1.434,3.283-1.434C88.279,13.416,89.318,13.828,90.172,14.654 M89.172,21.049
			c0.391-0.811,0.588-1.713,0.588-2.707c0-0.896-0.141-1.627-0.426-2.189c-0.449-0.885-1.227-1.328-2.33-1.328
			c-0.979,0-1.688,0.375-2.133,1.131c-0.441,0.754-0.664,1.664-0.664,2.729c0,1.023,0.223,1.875,0.664,2.559
			c0.445,0.682,1.15,1.023,2.117,1.023C88.047,22.266,88.773,21.859,89.172,21.049 M88.959,9.82l-2.398,2.596h-1.244l1.648-2.596
			H88.959z"/>
		<polygon fill="#FFFFFF" points="94.229,13.693 96.803,21.527 99.477,13.693 101.248,13.693 97.625,23.316 95.902,23.316 
			92.354,13.693 		"/>
		<path fill="#FFFFFF" d="M102.637,10.115h1.643v1.834h-1.643V10.115z M102.637,13.736h1.643v9.578h-1.643V13.736z"/>
		<rect x="106.77" y="10.115" fill="#FFFFFF" width="1.617" height="13.203"/>
		<g>
			<path fill="#FFFFFF" d="M310.275,11.521v-0.049c2.213-0.266,3.529-2.24,3.529-4.373c0-3.586-2.342-4.402-6.109-4.402h-7.904
				l-3.953,18.811h10.037c3.766,0,7.193-2.08,7.193-6.164C313.068,13.525,312.066,11.998,310.275,11.521z M305.691,18.295h-5.188
				v-0.002h-0.209l1.107-5.164h4.059c0.021,0,0.039,0.002,0.059,0.002h0.145c1.504,0,3.268,0.16,3.268,2.135
				C308.932,17.266,307.562,18.295,305.691,18.295z M306.877,10.314h-4.688v-0.002h-0.207l0.922-4.4h4.373
				c0.008,0,0.016,0.002,0.021,0.002h0.182c1.346,0,2.189,0.502,2.189,1.922C309.67,9.469,308.381,10.314,306.877,10.314z"/>
			<g>
				<path fill="#FFFFFF" d="M179.129,14.242c-0.928,0-1.768,0.426-2.326,1.146l-0.029-0.027l0.811-3.842h-1.252l-2.221,10.508h1.117
					l0.279-1.414h0.029c0.162,0.752,1.162,1.59,2.561,1.59c2.576,0,4.018-2.311,4.018-4.68
					C182.115,15.582,181.158,14.242,179.129,14.242z M178.098,21.1c-1.234,0-2.074-0.705-2.074-1.898
					c0-1.619,0.912-3.855,3.105-3.855c1.162,0,1.734,0.971,1.734,2.178C180.863,19.01,179.908,21.1,178.098,21.1z"/>
				<path fill="#FFFFFF" d="M184.49,20.553h-0.031l-0.881-6.047h-1.34l1.34,7.605l-0.766,1.266c-0.295,0.486-0.617,0.824-1.18,0.824
					c-0.221,0-0.529-0.088-0.721-0.205l-0.221,1.014c0.236,0.119,0.576,0.193,0.869,0.193c1.281,0,1.84-0.809,2.457-1.795
					l5.033-8.902h-1.367L184.49,20.553z"/>
			</g>
			<polygon fill="#FFFFFF" points="218.072,11.781 217.6,12.746 218.035,11.969 			"/>
			<g>
				<path fill="#FFFFFF" d="M206.895,15.047c0-3.762-2.322-5.025-5.611-5.879c-1.441-0.352-4.998-0.881-4.998-2.967
					c0-1.943,1.91-2.617,3.674-2.617c2.146,0,5.869,0.277,6.432,2.68h3.986C209.818,1.203,204.516,0,200.225,0
					c-4.057,0-8.318,1.852-8.318,6.525c0,3.611,2.646,4.816,5.291,5.641c2.615,0.795,5.32,1.205,5.32,3.262
					c0,2.086-2.145,2.971-3.998,2.971c-2.643,0-4.674-0.912-4.525-3.883h-4.377c0,5.059,2.938,7.467,8.727,7.467
					C202.34,21.982,206.895,20.07,206.895,15.047z"/>
				<path fill="#FFFFFF" d="M227.596,6.775c-2.051,0-3.744,0.805-5.021,2.389h-0.055l0.445-2h-1.242l-3.887,7.881l-1.643,6.463
					h3.939l1.609-7.629c0.416-1.998,1.639-3.994,4.023-3.994c0.916,0,1.887,0.611,1.887,1.471c0,0.389-0.137,1.328-0.25,1.746
					l-1.746,8.406h3.938l1.777-8.406c0.109-0.498,0.418-1.885,0.418-2.467C231.789,8.137,230.316,6.775,227.596,6.775z"/>
				<path fill="#FFFFFF" d="M218.072,12.51l2.619-5.346h-1.502h-2.23L211.99,17.43h-0.055l-1.248-10.266h-4.051l2.553,14.207
					c-0.527,0.75-0.75,1.941-2.607,1.941c-0.527,0-1.084-0.166-1.611-0.166l-0.666,3.275c0.695,0.025,1.416,0.137,2.109,0.137
					c2.969,0,4.217-0.555,5.576-3.023l5.609-10.061L218.072,12.51z"/>
				<g>
					<path fill="#FFFFFF" d="M245.916,15.373c0.139-0.695,0.223-1.471,0.223-2.248c0-4.162-2.691-6.271-6.689-6.271
						c-4.883,0-7.906,4.271-7.906,8.854c0,4.078,2.553,6.268,6.383,6.268c4.135,0,6.186-1.719,7.434-4.939h-3.939
						c-0.584,0.918-1.359,1.971-2.941,1.971c-2.135,0-3.164-1.135-3.164-2.801c0-0.223,0-0.473,0.029-0.832H245.916z M239.672,9.822
						c2.303,0,2.662,1.582,2.662,3.053h-6.576C236.344,11.266,237.451,9.822,239.672,9.822z"/>
				</g>
				<path fill="#FFFFFF" d="M256.266,6.854c-0.025,0-0.053,0.006-0.08,0.006c0.033-0.002,0.062-0.004,0.096-0.004
					C256.277,6.855,256.271,6.854,256.266,6.854z"/>
				<path fill="#FFFFFF" d="M256.682,10.768l0.039-0.195l-0.203-0.174c-0.062,0.098-0.123,0.197-0.184,0.299
					C256.451,10.721,256.566,10.742,256.682,10.768z"/>
				<path fill="#FFFFFF" d="M278.068,11.75l-3.264,5.711h-0.055l-1.248-10.266h-1.693l-0.998,5.482l1.193,8.723
					c-0.527,0.752-0.75,1.945-2.607,1.945c-0.527,0-1.084-0.168-1.611-0.168l-0.666,3.275c0.695,0.025,1.416,0.137,2.109,0.137
					c2.969,0,4.146,0.529,5.506-1.941l3.84-6.664C277.895,15.539,277.584,13.984,278.068,11.75z"/>
				<path fill="#FFFFFF" d="M255.445,10.535c0.111-0.203,0.229-0.4,0.352-0.588c0.336-0.508,0.705-0.955,1.086-1.342
					c0.596-0.602,1.014-1.068,1.568-1.41c-1.494-0.336-1.744-0.352-2.17-0.34c-0.033,0-0.062,0.002-0.096,0.004
					c-0.146,0.002-0.295,0.014-0.439,0.027c-0.158,0.016-0.283,0.035-0.389,0.053c-1.742,0.262-3.273,1.258-4.031,2.938
					l-0.055-0.055l0.582-2.582h-3.744l-3,14.346h3.941l1.332-6.354c0.527-2.441,1.609-4.715,4.633-4.715
					C255.24,10.518,255.223,10.502,255.445,10.535z"/>
				<path fill="#FFFFFF" d="M269.377,15.08h-0.002l0.752-4.129l0.684-3.756V7.193h-3.549l-0.445,2.193h-0.055
					c-0.805-1.887-2.414-2.582-4.385-2.582c-0.559,0-1.086,0.068-1.584,0.191c-0.156,0.055-0.736,0.17-1.297,0.482
					c-0.811,0.449-1.715,1.119-2.604,2.285c-0.119,0.156-0.262,0.463-0.375,0.635l0.203,0.174l-0.039,0.195
					c-0.115-0.025-0.23-0.047-0.348-0.07c-0.068,0.119-0.137,0.238-0.203,0.365c-0.648,1.355-0.996,2.895-0.996,4.4
					c0,3.523,2.109,5.855,5.521,5.855c1.609,0,2.914-0.666,3.939-2.027l0.055,0.057c-0.775,2.803-1.496,4.996-3.994,4.996
					c-1.275,0-2.637-0.611-2.582-2.055h-3.938c0,3.441,3.217,4.691,6.131,4.691c4.746,0,6.939-1.834,7.908-6.189L269.377,15.08z
					 M261.738,18.35c-1.83,0-2.664-1.471-2.664-3.164c0-2.303,1.389-5.41,4.025-5.41c1.914,0,2.828,1.303,2.828,3.107
					C265.928,15.324,264.57,18.35,261.738,18.35z"/>
				<path fill="#FFFFFF" d="M259.496,7.479c0.047,0.02,0.096,0.035,0.143,0.057c0.562-0.312,0.998-0.484,1.154-0.539
					C260.334,7.111,259.904,7.275,259.496,7.479z"/>
				<path fill="#FFFFFF" d="M256.318,10.693c-0.064,0.121-0.127,0.244-0.188,0.369c0.066-0.127,0.135-0.246,0.203-0.365
					C256.328,10.695,256.324,10.695,256.318,10.693z"/>
				<path fill="#FFFFFF" d="M256.518,10.398l-0.025-0.02c-0.061,0.104-0.119,0.207-0.174,0.314c0.006,0.002,0.01,0.002,0.016,0.004
					C256.395,10.596,256.455,10.496,256.518,10.398z"/>
				<path fill="#FFFFFF" d="M256.863,9.904l0.029-0.141c-0.141,0.199-0.275,0.404-0.4,0.615l0.025,0.02
					C256.631,10.227,256.742,10.062,256.863,9.904z"/>
			</g>
			<path fill="#FFFFFF" d="M282.902,11.758c0-0.006,0-0.01,0-0.012c0.057-0.406,0.121-0.6,0.26-1.098
				c0.004-0.027,0.014-0.055,0.021-0.08c0.053-0.186,0.107-0.373,0.172-0.562c0.732-2.121,2.193-3.924,4.459-4.387
				c0.016-0.006,0.027-0.012,0.045-0.016c0,0,0.049-0.008,0.115-0.016c0.314-0.057,0.639-0.092,0.982-0.092
				c1.266,0,2.252,0.291,2.912,0.924c0.084,0.074,0.162,0.152,0.236,0.234c0.012,0.016,0.023,0.033,0.035,0.051
				c0.387,0.463,0.643,1.096,0.637,1.979h4.135c0-0.473-0.057-0.9-0.133-1.32c-0.189-0.945-0.652-2.223-1.738-3.295
				c-0.094-0.088-0.178-0.182-0.277-0.264c-0.117-0.1-0.248-0.197-0.377-0.295c-0.684-0.477-1.465-0.85-2.338-1.092
				c-0.012-0.006-0.025-0.008-0.037-0.012c-0.402-0.109-0.828-0.186-1.26-0.248c-0.125-0.018-0.246-0.039-0.381-0.053
				c-0.418-0.045-0.846-0.072-1.283-0.076c-1.252,0.006-3.385,0.229-5.416,1.463c-0.123,0.078-0.242,0.166-0.361,0.25
				c-0.178,0.119-0.354,0.234-0.529,0.371c-0.252,0.205-0.494,0.428-0.73,0.656c-0.053,0.055-0.109,0.098-0.164,0.152
				c-0.107,0.113-0.203,0.24-0.311,0.357c-1.025,1.174-1.898,2.748-2.424,4.902c-0.07,0.309-0.135,0.629-0.189,0.965
				c0,0.014-0.002,0.027-0.004,0.043c-0.049,0.307-0.082,0.629-0.105,0.959c-0.012,0.115-0.018,0.234-0.023,0.355
				c-0.016,0.283-0.023,0.57-0.018,0.863c0,0.086,0.002,0.174,0.002,0.26c0.027,0.805,0.039,1.266,0.244,2.145
				c0.102,0.441,0.262,0.898,0.42,1.357l3.404-5.184C282.891,11.881,282.893,11.826,282.902,11.758z"/>
			<path fill="#FFFFFF" d="M288.1,14.422h4.346c-0.713,2.396-2.084,4.055-5.217,4.055c-2.986,0-4.25-2.244-4.264-4.809l-2.961,4.756
				c1.344,2.279,3.805,3.531,7.172,3.531c1.74,0,3.502-0.686,4.742-2.371h0.053v1.922h2.609l2.158-10.166h-7.982L288.1,14.422z"/>
		</g>
		<g>
			<path fill="#FFFFFF" d="M165.867,11.48v0.973l-4.746,9.928h-1.525l4.729-9.643v-0.033h-5.332V11.48H165.867z"/>
		</g>
	</g>
</g>
</svg>
