<?xml version="1.0" encoding="utf-8"?>
<!-- Generator: Adobe Illustrator 16.0.0, SVG Export Plug-In . SVG Version: 6.00 Build 0)  -->
<!DOCTYPE svg PUBLIC "-//W3C//DTD SVG 1.1//EN" "http://www.w3.org/Graphics/SVG/1.1/DTD/svg11.dtd">
<svg version="1.1" id="Layer_1" xmlns="http://www.w3.org/2000/svg" xmlns:xlink="http://www.w3.org/1999/xlink" x="0px" y="0px"
	 width="155.6px" height="30.1px" viewBox="0 0 155.6 30.1" enable-background="new 0 0 155.6 30.1" xml:space="preserve">
<g>
	<path fill="#56C5D1" d="M151.7,12.8L151.7,12.8c2.5-0.4,3.9-2.6,3.9-4.9c0-4-2.6-4.9-6.8-4.9H140l-4.4,21h11.2c4.2,0,8-2.3,8-6.9
		C154.8,15.1,153.7,13.4,151.7,12.8z M146.6,20.4h-5.8l0,0h-0.2l1.2-5.8h4.5c0,0,0,0,0.1,0h0.2c1.7,0,3.6,0.2,3.6,2.4
		C150.2,19.2,148.7,20.4,146.6,20.4z M147.9,11.5h-5.2v0h-0.2l1-4.9h4.9h0h0.2c1.5,0,2.4,0.6,2.4,2.1
		C151,10.5,149.6,11.5,147.9,11.5z"/>
	<g>
		<path fill="#182F58" d="M5.6,15.9c-1,0-2,0.5-2.6,1.3l0,0l0.9-4.3H2.5L0,24.5h1.2L1.6,23h0c0.2,0.8,1.3,1.8,2.9,1.8
			c2.9,0,4.5-2.6,4.5-5.2C8.9,17.4,7.9,15.9,5.6,15.9z M4.4,23.5c-1.4,0-2.3-0.8-2.3-2.1c0-1.8,1-4.3,3.5-4.3c1.3,0,1.9,1.1,1.9,2.4
			C7.5,21.2,6.5,23.5,4.4,23.5z"/>
		<path fill="#182F58" d="M11.6,22.9L11.6,22.9l-1-6.7H9.1l1.5,8.5L9.7,26C9.4,26.6,9,27,8.4,27c-0.2,0-0.6-0.1-0.8-0.2l-0.2,1.1
			c0.3,0.1,0.6,0.2,1,0.2c1.4,0,2-0.9,2.7-2l5.6-9.9h-1.5L11.6,22.9z"/>
	</g>
	<polygon fill="#182F58" points="49,13.1 48.4,14.2 48.9,13.3 	"/>
	<g>
		<path fill="#182F58" d="M36.5,16.8c0-4.2-2.6-5.6-6.3-6.5c-1.6-0.4-5.6-1-5.6-3.3c0-2.2,2.1-2.9,4.1-2.9c2.4,0,6.5,0.3,7.2,3h4.4
			c-0.6-5.6-6.5-7-11.3-7c-4.5,0-9.3,2.1-9.3,7.3c0,4,2.9,5.4,5.9,6.3c2.9,0.9,5.9,1.3,5.9,3.6c0,2.3-2.4,3.3-4.5,3.3
			c-2.9,0-5.2-1-5-4.3h-4.9c0,5.6,3.3,8.3,9.7,8.3C31.4,24.5,36.5,22.4,36.5,16.8z"/>
		<path fill="#182F58" d="M59.6,7.5c-2.3,0-4.2,0.9-5.6,2.7h-0.1L54.4,8H53l-4.3,8.8L46.9,24h4.4l1.8-8.5c0.5-2.2,1.8-4.5,4.5-4.5
			c1,0,2.1,0.7,2.1,1.6c0,0.4-0.2,1.5-0.3,1.9L57.4,24h4.4l2-9.4c0.1-0.6,0.5-2.1,0.5-2.8C64.3,9.1,62.6,7.5,59.6,7.5z"/>
		<path fill="#182F58" d="M49,13.9l2.9-6h-1.7h-2.5l-5.5,11.4h-0.1L40.7,8h-4.5l2.8,15.8c-0.6,0.8-0.8,2.2-2.9,2.2
			c-0.6,0-1.2-0.2-1.8-0.2l-0.7,3.7c0.8,0,1.6,0.2,2.3,0.2c3.3,0,4.7-0.6,6.2-3.4L48.4,15L49,13.9z"/>
		<g>
			<path fill="#182F58" d="M80,17.1c0.2-0.8,0.2-1.6,0.2-2.5c0-4.6-3-7-7.5-7c-5.4,0-8.8,4.8-8.8,9.9c0,4.5,2.8,7,7.1,7
				c4.6,0,6.9-1.9,8.3-5.5H75c-0.6,1-1.5,2.2-3.3,2.2c-2.4,0-3.5-1.3-3.5-3.1c0-0.2,0-0.5,0-0.9H80z M73,10.9c2.6,0,3,1.8,3,3.4
				h-7.3C69.3,12.5,70.6,10.9,73,10.9z"/>
		</g>
		<path fill="#182F58" d="M91.5,7.6C91.5,7.6,91.5,7.6,91.5,7.6C91.5,7.6,91.5,7.6,91.5,7.6L91.5,7.6z"/>
		<path fill="#182F58" d="M92,12l0-0.2l-0.2-0.2c-0.1,0.1-0.1,0.2-0.2,0.3C91.7,11.9,91.9,12,92,12z"/>
		<path fill="#182F58" d="M115.8,13.1l-3.6,6.4h-0.1L110.7,8h-1.9l-1.1,6.1l1.3,9.7c-0.6,0.8-0.8,2.2-2.9,2.2
			c-0.6,0-1.2-0.2-1.8-0.2l-0.7,3.6c0.8,0,1.6,0.2,2.3,0.2c3.3,0,4.6,0.6,6.1-2.2l4.3-7.4C115.6,17.3,115.3,15.6,115.8,13.1z"/>
		<path fill="#182F58" d="M90.6,11.7c0.1-0.2,0.3-0.4,0.4-0.7c0.4-0.6,0.8-1.1,1.2-1.5C92.9,8.9,93.3,8.4,94,8
			c-1.7-0.4-1.9-0.4-2.4-0.4c0,0-0.1,0-0.1,0c-0.2,0-0.3,0-0.5,0c-0.2,0-0.3,0-0.4,0.1C88.6,8,86.9,9.1,86,11L86,10.9l0.6-2.9h-4.2
			l-3.3,16h4.4L85,17c0.6-2.7,1.8-5.3,5.2-5.3C90.4,11.7,90.4,11.7,90.6,11.7z"/>
		<path fill="#182F58" d="M106.1,16.8L106.1,16.8l0.8-4.6l0.8-4.2v0h-4l-0.5,2.4h-0.1c-0.9-2.1-2.7-2.9-4.9-2.9
			c-0.6,0-1.2,0.1-1.8,0.2c-0.2,0.1-0.8,0.2-1.4,0.5c-0.9,0.5-1.9,1.2-2.9,2.5c-0.1,0.2-0.3,0.5-0.4,0.7l0.2,0.2l0,0.2
			c-0.1,0-0.3-0.1-0.4-0.1c-0.1,0.1-0.2,0.3-0.2,0.4c-0.7,1.5-1.1,3.2-1.1,4.9c0,3.9,2.4,6.5,6.2,6.5c1.8,0,3.2-0.7,4.4-2.3l0.1,0.1
			c-0.9,3.1-1.7,5.6-4.5,5.6c-1.4,0-2.9-0.7-2.9-2.3h-4.4c0,3.8,3.6,5.2,6.8,5.2c5.3,0,7.7-2,8.8-6.9L106.1,16.8z M97.6,20.4
			c-2,0-3-1.6-3-3.5c0-2.6,1.5-6,4.5-6c2.1,0,3.2,1.5,3.2,3.5C102.3,17.1,100.8,20.4,97.6,20.4z"/>
		<path fill="#182F58" d="M95.1,8.3c0.1,0,0.1,0,0.2,0.1c0.6-0.3,1.1-0.5,1.3-0.6C96,7.9,95.6,8.1,95.1,8.3z"/>
		<path fill="#182F58" d="M91.6,11.9c-0.1,0.1-0.1,0.3-0.2,0.4C91.4,12.2,91.5,12,91.6,11.9C91.6,11.9,91.6,11.9,91.6,11.9z"/>
		<path fill="#182F58" d="M91.8,11.6L91.8,11.6c-0.1,0.1-0.2,0.2-0.2,0.3c0,0,0,0,0,0C91.7,11.8,91.7,11.7,91.8,11.6z"/>
		<path fill="#182F58" d="M92.2,11l0-0.2c-0.2,0.2-0.3,0.4-0.4,0.7l0,0C91.9,11.4,92.1,11.2,92.2,11z"/>
	</g>
	<path fill="#182F58" d="M121.2,13.1C121.2,13.1,121.2,13.1,121.2,13.1c0.1-0.5,0.1-0.7,0.3-1.2c0,0,0-0.1,0-0.1
		c0.1-0.2,0.1-0.4,0.2-0.6c0.8-2.4,2.4-4.4,5-4.9c0,0,0,0,0,0c0,0,0.1,0,0.1,0c0.3-0.1,0.7-0.1,1.1-0.1c1.4,0,2.5,0.3,3.2,1
		c0.1,0.1,0.2,0.2,0.3,0.3c0,0,0,0,0,0.1c0.4,0.5,0.7,1.2,0.7,2.2h4.6c0-0.5-0.1-1-0.1-1.5c-0.2-1.1-0.7-2.5-1.9-3.7
		c-0.1-0.1-0.2-0.2-0.3-0.3c-0.1-0.1-0.3-0.2-0.4-0.3c-0.8-0.5-1.6-0.9-2.6-1.2c0,0,0,0,0,0c-0.4-0.1-0.9-0.2-1.4-0.3
		c-0.1,0-0.3,0-0.4-0.1c-0.5-0.1-0.9-0.1-1.4-0.1c-1.4,0-3.8,0.3-6,1.6c-0.1,0.1-0.3,0.2-0.4,0.3c-0.2,0.1-0.4,0.3-0.6,0.4
		c-0.3,0.2-0.6,0.5-0.8,0.7c-0.1,0.1-0.1,0.1-0.2,0.2c-0.1,0.1-0.2,0.3-0.3,0.4c-1.1,1.3-2.1,3.1-2.7,5.5c-0.1,0.3-0.2,0.7-0.2,1.1
		c0,0,0,0,0,0.1c-0.1,0.3-0.1,0.7-0.1,1.1c0,0.1,0,0.3,0,0.4c0,0.3,0,0.6,0,1c0,0.1,0,0.2,0,0.3c0,0.9,0,1.4,0.3,2.4
		c0.1,0.5,0.3,1,0.5,1.5l3.8-5.8C121.2,13.2,121.2,13.2,121.2,13.1z"/>
	<path fill="#56C5D1" d="M127,16.1h4.8c-0.8,2.7-2.3,4.5-5.8,4.5c-3.3,0-4.7-2.5-4.7-5.4l-3.3,5.3c1.5,2.5,4.2,3.9,8,3.9
		c1.9,0,3.9-0.8,5.3-2.6h0.1V24h2.9l2.4-11.3h-8.9L127,16.1z"/>
</g>
</svg>
