<?xml version="1.0" encoding="utf-8"?>
<!-- Generator: Adobe Illustrator 16.0.0, SVG Export Plug-In . SVG Version: 6.00 Build 0)  -->
<!DOCTYPE svg PUBLIC "-//W3C//DTD SVG 1.1//EN" "http://www.w3.org/Graphics/SVG/1.1/DTD/svg11.dtd">
<svg version="1.1" id="Layer_1" xmlns="http://www.w3.org/2000/svg" xmlns:xlink="http://www.w3.org/1999/xlink" x="0px" y="0px"
	 width="201.43px" height="201.415px" viewBox="0 0 201.43 201.415" enable-background="new 0 0 201.43 201.415"
	 xml:space="preserve">
<path opacity="0.2" fill="#FFFFFF" d="M201.43,139.25V0C95.986,12.333,12.331,95.972,0,201.415h139.27
	C148.262,171.69,171.703,148.241,201.43,139.25z"/>
<g>
	<g>
		<path fill="#FFFFFF" d="M139.146,49.229H93.246c-3.822,0-6.953,3.134-6.953,6.953v89.049c0,3.824,3.131,6.955,6.953,6.955h45.899
			c3.816,0,6.949-3.131,6.949-6.955V56.182C146.095,52.363,142.962,49.229,139.146,49.229L139.146,49.229z M108.856,54.238h14.673
			c0.475,0,0.848,0.377,0.848,0.853c0,0.457-0.373,0.826-0.848,0.826h-14.673c-0.479,0-0.851-0.369-0.851-0.826
			C108.006,54.615,108.377,54.238,108.856,54.238L108.856,54.238z M116.192,148.713c-1.93,0-3.474-1.557-3.474-3.482
			c0-1.922,1.544-3.473,3.474-3.473c1.926,0,3.474,1.551,3.474,3.473C119.665,147.159,118.117,148.713,116.192,148.713
			L116.192,148.713z M141.255,139.315H91.129V60.26h50.126V139.315z"/>
	</g>
</g>
<g>
	<g>
		<text transform="matrix(1 0 0 1 20.8137 193.4419)" fill="#FFFFFF" font-family="'Helvetica'" font-size="18">Banca Móvil</text>
	</g>
</g>
</svg>
