<?xml version="1.0" encoding="utf-8"?>
<!-- Generator: Adobe Illustrator 16.0.0, SVG Export Plug-In . SVG Version: 6.00 Build 0)  -->
<!DOCTYPE svg PUBLIC "-//W3C//DTD SVG 1.1//EN" "http://www.w3.org/Graphics/SVG/1.1/DTD/svg11.dtd">
<svg version="1.1" id="Layer_1" xmlns="http://www.w3.org/2000/svg" xmlns:xlink="http://www.w3.org/1999/xlink" x="0px" y="0px"
	 width="201.43px" height="201.415px" viewBox="0 0 201.43 201.415" enable-background="new 0 0 201.43 201.415"
	 xml:space="preserve">
<path opacity="0.2" fill="#FFFFFF" d="M0,0v139.25c29.727,8.99,53.169,32.438,62.16,62.164h139.27
	C189.099,95.972,105.443,12.333,0,0z"/>
<g>
	<g>
		<path fill="#FFFFFF" d="M49.739,74.954c0-4.196,1.344-8.448,4.036-12.755c2.694-4.304,6.628-7.871,11.796-10.699
			c5.164-2.824,11.196-4.237,18.085-4.237c6.402,0,12.061,1.177,16.961,3.542c4.903,2.366,8.69,5.579,11.361,9.642
			c2.675,4.062,4.005,8.478,4.005,13.251c0,3.752-0.757,7.043-2.28,9.867c-1.524,2.831-3.339,5.268-5.432,7.324
			c-2.102,2.054-5.868,5.51-11.299,10.367c-1.5,1.367-2.71,2.576-3.609,3.611c-0.905,1.039-1.58,1.987-2.02,2.852
			c-0.443,0.857-0.788,1.721-1.026,2.584c-0.247,0.861-0.607,2.371-1.094,4.537c-0.839,4.595-3.469,6.891-7.882,6.891
			c-2.301,0-4.235-0.751-5.8-2.255c-1.569-1.501-2.35-3.729-2.35-6.688c0-3.711,0.569-6.924,1.72-9.639
			c1.145-2.718,2.672-5.104,4.574-7.157c1.896-2.055,4.458-4.495,7.685-7.325c2.82-2.469,4.866-4.337,6.125-5.596
			c1.263-1.259,2.316-2.66,3.181-4.209c0.863-1.541,1.294-3.22,1.294-5.033c0-3.532-1.319-6.517-3.941-8.946
			c-2.628-2.426-6.021-3.642-10.173-3.642c-4.855,0-8.433,1.228-10.731,3.68c-2.297,2.447-4.239,6.058-5.83,10.828
			c-1.502,4.992-4.348,7.489-8.545,7.489c-2.473,0-4.563-0.875-6.264-2.619C50.588,78.873,49.739,76.986,49.739,74.954z
			 M82.064,147.567c-2.69,0-5.045-0.869-7.057-2.613c-2.006-1.744-3.01-4.188-3.01-7.32c0-2.786,0.971-5.127,2.914-7.025
			c1.944-1.896,4.326-2.845,7.151-2.845c2.783,0,5.125,0.946,7.024,2.845c1.9,1.898,2.847,4.239,2.847,7.025
			c0,3.092-0.988,5.521-2.98,7.281C86.972,146.686,84.672,147.567,82.064,147.567z"/>
	</g>
</g>
<g>
	<g>
		<g>
			<text transform="matrix(1 0 0 1 99.761 193.4419)" fill="#FFFFFF" font-family="'Helvetica'" font-size="18">Tutorial</text>
		</g>
	</g>
</g>
</svg>
