<?xml version="1.0" encoding="utf-8"?>
<!-- Generator: Adobe Illustrator 16.0.0, SVG Export Plug-In . SVG Version: 6.00 Build 0)  -->
<!DOCTYPE svg PUBLIC "-//W3C//DTD SVG 1.1//EN" "http://www.w3.org/Graphics/SVG/1.1/DTD/svg11.dtd">
<svg version="1.1" id="Layer_1" xmlns="http://www.w3.org/2000/svg" xmlns:xlink="http://www.w3.org/1999/xlink" x="0px" y="0px"
	 width="201.43px" height="201.414px" viewBox="0 0 201.43 201.414" enable-background="new 0 0 201.43 201.414"
	 xml:space="preserve">
<path opacity="0.2" fill="#FFFFFF" d="M201.43,201.414V62.162C171.703,53.173,148.262,29.725,139.271,0H0
	C12.332,105.441,95.986,189.081,201.43,201.414z"/>
<g>
	<g>
		<path fill="#FFFFFF" d="M116.193,46.469c-21.225,0-38.489,17.269-38.489,38.494c0,8.991,3.098,17.276,8.287,23.834l30.202,37.977
			l30.201-37.977c5.189-6.558,8.289-14.843,8.289-23.834C154.684,63.737,137.416,46.469,116.193,46.469z M116.193,101.775
			c-9.555,0-17.323-7.774-17.323-17.331c0-9.551,7.77-17.324,17.323-17.324c9.55,0,17.326,7.773,17.326,17.324
			C133.52,94.001,125.748,101.775,116.193,101.775z"/>
	</g>
</g>
<g>
	<g>
		<g>
			<text transform="matrix(1 0 0 1 29.3 26.6064)" fill="#FFFFFF" font-family="'Helvetica'" font-size="18">Ubícanos</text>
		</g>
	</g>
</g>
</svg>
