<?xml version="1.0" encoding="utf-8"?>
<!-- Generator: Adobe Illustrator 16.0.0, SVG Export Plug-In . SVG Version: 6.00 Build 0)  -->
<!DOCTYPE svg PUBLIC "-//W3C//DTD SVG 1.1//EN" "http://www.w3.org/Graphics/SVG/1.1/DTD/svg11.dtd">
<svg version="1.1" id="Layer_1" xmlns="http://www.w3.org/2000/svg" xmlns:xlink="http://www.w3.org/1999/xlink" x="0px" y="0px"
	 width="27.398px" height="27.71px" viewBox="0 0 27.398 27.71" enable-background="new 0 0 27.398 27.71" xml:space="preserve">
<g>
	<g>
		<g>
			<path fill="#FFFFFF" d="M25.393,0h-11.6c-1.108,0-2.007,0.904-2.007,2.007v23.554c0,1.108,0.898,2.006,2.007,2.006h11.6
				c1.109,0,2.006-0.897,2.006-2.006V2.007C27.398,0.904,26.502,0,25.393,0L25.393,0z M16.732,1.223h5.723
				c0.147,0,0.265,0.216,0.265,0.48c0,0.271-0.117,0.486-0.265,0.486h-5.723c-0.149,0-0.262-0.216-0.262-0.486
				C16.471,1.438,16.583,1.223,16.732,1.223L16.732,1.223z M19.595,25.584c-0.706,0-1.284-0.573-1.284-1.279s0.578-1.28,1.284-1.28
				c0.701,0,1.276,0.574,1.276,1.28S20.296,25.584,19.595,25.584L19.595,25.584z M25.894,21.194H13.293V3.392h12.601V21.194z
				 M25.894,21.194"/>
		</g>
	</g>
	<g>
		<g>
			<path fill="#FFFFFF" d="M21.561,11.616l-5.398-4.449c-0.101-0.082-0.24-0.1-0.359-0.045c-0.117,0.056-0.192,0.176-0.192,0.306
				v2.345c-2.62,0.096-4.422,1.02-5.358,2.752c-0.807,1.493-0.8,3.261-0.792,4.432v0.27c0,0.153,0.103,0.289,0.254,0.328
				c0.027,0.008,0.058,0.011,0.085,0.011c0.12,0,0.232-0.062,0.293-0.17c1.829-3.226,3.334-3.38,5.517-3.388v2.337
				c0,0.13,0.074,0.251,0.194,0.306c0.121,0.055,0.259,0.038,0.362-0.044l5.396-4.466c0.078-0.064,0.123-0.16,0.123-0.26
				C21.684,11.779,21.639,11.682,21.561,11.616L21.561,11.616z M16.288,15.625"/>
		</g>
	</g>
	<g>
		<path fill="#FFFFFF" d="M5.606,16.496C2.51,16.496,0,19.006,0,22.103s2.51,5.607,5.606,5.607c3.096,0,5.606-2.511,5.606-5.607
			S8.702,16.496,5.606,16.496z M4.999,23.169c-0.083,0.138-0.186,0.252-0.31,0.344c-0.139,0.107-0.304,0.181-0.494,0.221
			c-0.189,0.039-0.395,0.059-0.618,0.059h-1.97V19.42h2.113c0.533,0.008,0.91,0.163,1.133,0.466
			c0.134,0.186,0.201,0.408,0.201,0.668c0,0.267-0.068,0.481-0.203,0.644c-0.075,0.091-0.187,0.173-0.333,0.249
			c0.223,0.081,0.392,0.209,0.505,0.385c0.113,0.177,0.171,0.39,0.171,0.642C5.194,22.731,5.129,22.964,4.999,23.169z M8.309,23.599
			c-0.238,0.202-0.607,0.304-1.106,0.304c-0.51,0-0.885-0.107-1.128-0.322S5.71,23.093,5.71,22.761h0.857
			c0.018,0.149,0.057,0.257,0.115,0.319c0.105,0.113,0.301,0.169,0.584,0.169c0.168,0,0.301-0.023,0.398-0.074
			c0.099-0.049,0.147-0.123,0.147-0.222c0-0.095-0.04-0.168-0.118-0.217c-0.08-0.05-0.374-0.134-0.884-0.256
			c-0.368-0.091-0.627-0.203-0.777-0.341c-0.15-0.134-0.226-0.328-0.226-0.58c0-0.299,0.118-0.557,0.353-0.77
			c0.235-0.216,0.565-0.323,0.991-0.323c0.404,0,0.734,0.081,0.988,0.241c0.255,0.162,0.401,0.44,0.438,0.836H7.733
			c-0.012-0.109-0.043-0.194-0.093-0.259c-0.093-0.114-0.252-0.172-0.476-0.172c-0.185,0-0.315,0.029-0.394,0.087
			c-0.079,0.058-0.118,0.124-0.118,0.201c0,0.097,0.042,0.168,0.125,0.211c0.083,0.045,0.378,0.123,0.883,0.234
			c0.336,0.078,0.589,0.198,0.757,0.358c0.166,0.163,0.25,0.365,0.25,0.608C8.668,23.134,8.548,23.396,8.309,23.599z M9.275,23.792
			v-0.887h0.899v0.887H9.275z"/>
		<path fill="#FFFFFF" d="M3.993,21.941c-0.104-0.047-0.249-0.072-0.438-0.073H2.479v1.165h1.062c0.189,0,0.338-0.025,0.443-0.077
			c0.191-0.096,0.287-0.277,0.287-0.547C4.271,22.184,4.179,22.026,3.993,21.941z"/>
		<path fill="#FFFFFF" d="M4.005,21.035c0.118-0.072,0.178-0.2,0.178-0.384c0-0.204-0.079-0.338-0.235-0.403
			c-0.135-0.046-0.307-0.069-0.517-0.069H2.479v0.965h1.062C3.731,21.144,3.886,21.107,4.005,21.035z"/>
	</g>
</g>
</svg>
