<?xml version="1.0" encoding="utf-8"?>
<!-- Generator: Adobe Illustrator 16.0.0, SVG Export Plug-In . SVG Version: 6.00 Build 0)  -->
<!DOCTYPE svg PUBLIC "-//W3C//DTD SVG 1.1//EN" "http://www.w3.org/Graphics/SVG/1.1/DTD/svg11.dtd">
<svg version="1.1" id="Layer_1" xmlns="http://www.w3.org/2000/svg" xmlns:xlink="http://www.w3.org/1999/xlink" x="0px" y="0px"
	 width="27.625px" height="27.566px" viewBox="0 0 27.625 27.566" enable-background="new 0 0 27.625 27.566" xml:space="preserve">
<g>
	<path fill="#FFFFFF" d="M10.594,17.044c2.479,2.459,5.348,4.809,6.473,3.676c1.611-1.625,2.605-3.037,6.182-0.184
		s0.846,4.775-0.715,6.348c-1.803,1.816-8.551,0.128-15.24-6.512C0.604,13.733-1.137,6.997,0.666,5.181
		c1.562-1.574,3.463-4.318,6.342-0.762c2.881,3.555,1.477,4.557-0.135,6.182C5.748,11.735,8.115,14.585,10.594,17.044z
		 M14.188,5.311c0,0-0.748-0.116-1.271,0.407c-0.537,0.539-0.561,1.467,0.006,2.033c0.336,0.336,0.809,0.407,0.809,0.407
		c0.924,0.173,2.312,0.466,3.791,1.944c1.48,1.479,1.771,2.869,1.945,3.791c0,0,0.072,0.473,0.408,0.809
		c0.566,0.568,1.494,0.545,2.033,0.006c0.523-0.523,0.406-1.271,0.406-1.271c-0.293-1.867-1.197-3.818-2.752-5.373
		C18.006,6.509,16.055,5.604,14.188,5.311z M21.199,6.426c2.711,2.71,3.867,5.788,3.49,8.28c0,0-0.131,0.79,0.385,1.306
		c0.58,0.58,1.5,0.547,2.043,0.005c0.35-0.35,0.426-0.918,0.426-0.918c0.311-2.154-0.08-6.489-4.305-10.713
		c-4.223-4.223-8.557-4.613-10.713-4.303c0,0-0.566,0.076-0.916,0.425c-0.543,0.544-0.576,1.462,0.004,2.044
		c0.516,0.516,1.307,0.385,1.307,0.385C15.412,2.56,18.488,3.716,21.199,6.426z"/>
</g>
</svg>
