<?xml version="1.0" encoding="utf-8"?>
<!-- Generator: Adobe Illustrator 16.0.0, SVG Export Plug-In . SVG Version: 6.00 Build 0)  -->
<!DOCTYPE svg PUBLIC "-//W3C//DTD SVG 1.1//EN" "http://www.w3.org/Graphics/SVG/1.1/DTD/svg11.dtd">
<svg version="1.1" id="Layer_1" xmlns="http://www.w3.org/2000/svg" xmlns:xlink="http://www.w3.org/1999/xlink" x="0px" y="0px"
	 width="24.025px" height="23.873px" viewBox="0 0 24.025 23.873" enable-background="new 0 0 24.025 23.873" xml:space="preserve">
<g>
	<g>
		<path fill="#FFFFFF" d="M0,14.366v-2.535c0-1.55,0.777-2.324,2.337-2.325H9.56V0h2.554c1.556,0,2.332,0.777,2.332,2.323
			l0.011,12.043H0L0,14.366z"/>
	</g>
	<path fill-rule="evenodd" clip-rule="evenodd" fill="#FFFFFF" d="M14.466,15.336v8.537h-2.549c-1.559,0-2.336-0.773-2.339-2.321
		v-6.216h0.843H14.466L14.466,15.336z M24.025,9.511v2.535c0,1.551-0.776,2.323-2.337,2.323h-6.383v-3.894V9.511H24.025
		L24.025,9.511z"/>
	<path fill="#FFFFFF" d="M14.466,15.336v8.537h-2.549c-1.559,0-2.336-0.773-2.339-2.321v-6.216h0.843H14.466L14.466,15.336z"/>
	<g>
		<path fill="#FFFFFF" d="M24.025,9.511v2.535c0,1.551-0.776,2.323-2.337,2.323h-6.383v-3.894V9.511H24.025L24.025,9.511z"/>
	</g>
</g>
</svg>
