<?xml version="1.0" encoding="utf-8"?>
<!-- Generator: Adobe Illustrator 16.0.0, SVG Export Plug-In . SVG Version: 6.00 Build 0)  -->
<!DOCTYPE svg PUBLIC "-//W3C//DTD SVG 1.1//EN" "http://www.w3.org/Graphics/SVG/1.1/DTD/svg11.dtd">
<svg version="1.1" id="Layer_1" xmlns="http://www.w3.org/2000/svg" xmlns:xlink="http://www.w3.org/1999/xlink" x="0px" y="0px"
	 width="201.43px" height="201.414px" viewBox="0 0 201.43 201.414" enable-background="new 0 0 201.43 201.414"
	 xml:space="preserve">
<path opacity="0.2" fill="#FFFFFF" d="M0,62.162v139.252C105.443,189.081,189.098,105.441,201.43,0H62.159
	C53.168,29.725,29.727,53.173,0,62.162z"/>
<g>
	<path fill="#FFFFFF" d="M74.869,80.598c0,0,10.324-2.879,11.329-5.45c1.016-2.568,5.48-21.53-1.807-24.382
		c-7.29-2.845-18.174,1.454-20.515,7.446c-2.342,5.994-8.937,28.796,4.874,54.054c13.809,25.256,31.84,31.312,35.534,31.105
		c3.688-0.194,16.679-5.654,16.494-13.617c-0.177-7.959-14.458-15.177-18.607-15.484c-4.158-0.305-10.317,7.021-10.317,7.021
		s-9.508-10.154-13.296-21.5C74.769,88.439,74.869,80.598,74.869,80.598z"/>
</g>
<g>
	<g>
		<g>
			<text transform="matrix(1 0 0 1 97.6985 26.6064)" fill="#FFFFFF" font-family="'Helvetica'" font-size="18">Contacto</text>
		</g>
	</g>
</g>
</svg>
