<?xml version="1.0" encoding="utf-8"?>
<!-- Generator: Adobe Illustrator 16.0.0, SVG Export Plug-In . SVG Version: 6.00 Build 0)  -->
<!DOCTYPE svg PUBLIC "-//W3C//DTD SVG 1.1//EN" "http://www.w3.org/Graphics/SVG/1.1/DTD/svg11.dtd">
<svg version="1.1" id="Layer_1" xmlns="http://www.w3.org/2000/svg" xmlns:xlink="http://www.w3.org/1999/xlink" x="0px" y="0px"
	 width="22.257px" height="28.391px" viewBox="0 0 22.257 28.391" enable-background="new 0 0 22.257 28.391" xml:space="preserve">
<g>
	<path fill="#FFFFFF" d="M1.488,9.723h15.687l-3.784,3.566c-0.281,0.281-0.438,0.548-0.437,0.944
		c0.001,0.398,0.155,0.718,0.436,0.997c0.28,0.281,0.654,0.409,1.053,0.409c0.397,0,0.771-0.168,1.053-0.449l6.325-6.332
		c0.58-0.582,0.58-1.528,0-2.108l-6.325-6.328c-0.562-0.562-1.542-0.562-2.106,0c-0.579,0.58-0.579,1.731,0.001,2.312l3.785,3.989
		H1.488C0.668,6.723,0,7.402,0,8.223C0,9.044,0.668,9.723,1.488,9.723z"/>
	<path fill="#FFFFFF" d="M20.769,19.723H5.081l3.786-4.104c0.579-0.58,0.579-1.685,0-2.263c-0.561-0.564-1.545-0.644-2.105-0.081
		L0.438,19.56C0.155,19.841,0,20.194,0,20.592c-0.001,0.397,0.154,0.763,0.436,1.044l6.326,6.321
		c0.281,0.281,0.654,0.434,1.053,0.434c0.396,0,0.771-0.156,1.052-0.438c0.281-0.281,0.437-0.655,0.437-1.054
		c0-0.397-0.155-0.441-0.437-0.721l-3.785-3.456h15.688c0.821,0,1.488-0.68,1.488-1.5S21.59,19.723,20.769,19.723z"/>
</g>
</svg>
