<?xml version="1.0" encoding="utf-8"?>
<!-- Generator: Adobe Illustrator 16.0.0, SVG Export Plug-In . SVG Version: 6.00 Build 0)  -->
<!DOCTYPE svg PUBLIC "-//W3C//DTD SVG 1.1//EN" "http://www.w3.org/Graphics/SVG/1.1/DTD/svg11.dtd">
<svg version="1.1" id="Layer_1" xmlns="http://www.w3.org/2000/svg" xmlns:xlink="http://www.w3.org/1999/xlink" x="0px" y="0px"
	 width="25.769px" height="27.61px" viewBox="0 0 25.769 27.61" enable-background="new 0 0 25.769 27.61" xml:space="preserve">
<g>
	<path fill="#FFFFFF" d="M12.885,27.61C5.78,27.61,0,21.829,0,14.726c0-3.674,1.576-7.183,4.325-9.628
		C5.083,4.422,6.247,4.49,6.922,5.249c0.676,0.759,0.608,1.924-0.151,2.6c-1.963,1.747-3.089,4.253-3.089,6.877
		c0,5.076,4.129,9.204,9.203,9.204c5.075,0,9.203-4.128,9.203-9.204c0-2.624-1.125-5.13-3.084-6.877
		c-0.763-0.676-0.831-1.838-0.155-2.6c0.675-0.759,1.84-0.827,2.6-0.151c2.746,2.445,4.32,5.954,4.32,9.628
		C25.769,21.829,19.988,27.61,12.885,27.61z M14.726,11.044V1.842C14.726,0.823,13.902,0,12.885,0c-1.017,0-1.841,0.823-1.841,1.842
		v9.202c0,1.018,0.824,1.841,1.841,1.841C13.902,12.885,14.726,12.062,14.726,11.044z"/>
</g>
</svg>
