<?xml version="1.0" encoding="utf-8"?>
<!-- Generator: Adobe Illustrator 16.0.0, SVG Export Plug-In . SVG Version: 6.00 Build 0)  -->
<!DOCTYPE svg PUBLIC "-//W3C//DTD SVG 1.1//EN" "http://www.w3.org/Graphics/SVG/1.1/DTD/svg11.dtd">
<svg version="1.1" id="Layer_1" xmlns="http://www.w3.org/2000/svg" xmlns:xlink="http://www.w3.org/1999/xlink" x="0px" y="0px"
	 width="28.802px" height="25.592px" viewBox="0 0 28.802 25.592" enable-background="new 0 0 28.802 25.592" xml:space="preserve">
<g>
	<g>
		<path fill="#FFFFFF" d="M8.368,14.843c0.81,0,1.593-0.053,2.332-0.15V6.578c-0.739-0.097-1.522-0.15-2.332-0.15
			C3.748,6.428,0,8.128,0,10.224v0.822C0,13.142,3.748,14.843,8.368,14.843z"/>
		<path fill="#FFFFFF" d="M8.368,19.079c0.81,0,1.593-0.053,2.332-0.149v-2.378c-0.739,0.098-1.522,0.15-2.332,0.15
			c-4.033,0-7.401-1.295-8.19-3.018C0.062,13.935,0,14.194,0,14.461v0.823C0,17.38,3.748,19.079,8.368,19.079z"/>
		<path fill="#FFFFFF" d="M10.7,20.974v-0.186c-0.739,0.098-1.522,0.15-2.332,0.15c-4.033,0-7.401-1.294-8.19-3.018
			C0.062,18.171,0,18.433,0,18.698v0.822c0,2.097,3.748,3.795,8.368,3.795c0.924,0,1.813-0.065,2.645-0.193
			c-0.206-0.42-0.312-0.865-0.312-1.325V20.974z"/>
		<path fill="#FFFFFF" d="M20.434,0c-4.62,0-8.367,1.699-8.367,3.796v0.822c0,2.098,3.747,3.797,8.367,3.797
			c4.621,0,8.368-1.699,8.368-3.797V3.796C28.802,1.699,25.055,0,20.434,0z"/>
		<path fill="#FFFFFF" d="M20.434,10.273c-4.032,0-7.4-1.294-8.191-3.017c-0.116,0.25-0.176,0.51-0.176,0.776v0.823
			c0,2.096,3.747,3.795,8.367,3.795c4.621,0,8.368-1.699,8.368-3.795V8.033c0-0.267-0.062-0.526-0.175-0.776
			C27.835,8.979,24.468,10.273,20.434,10.273z"/>
		<path fill="#FFFFFF" d="M20.434,14.511c-4.032,0-7.4-1.295-8.191-3.02c-0.116,0.252-0.176,0.514-0.176,0.779v0.822
			c0,2.096,3.747,3.795,8.367,3.795c4.621,0,8.368-1.699,8.368-3.795v-0.822c0-0.266-0.062-0.527-0.175-0.779
			C27.835,13.216,24.468,14.511,20.434,14.511z"/>
		<path fill="#FFFFFF" d="M20.434,18.977c-4.032,0-7.4-1.294-8.191-3.019c-0.116,0.252-0.176,0.512-0.176,0.779v0.821
			c0,2.097,3.747,3.796,8.367,3.796c4.621,0,8.368-1.699,8.368-3.796v-0.821c0-0.268-0.062-0.527-0.175-0.779
			C27.835,17.683,24.468,18.977,20.434,18.977z"/>
		<path fill="#FFFFFF" d="M20.434,23.214c-4.032,0-7.4-1.294-8.191-3.018c-0.116,0.252-0.176,0.512-0.176,0.777v0.823
			c0,2.096,3.747,3.795,8.367,3.795c4.621,0,8.368-1.699,8.368-3.795v-0.823c0-0.266-0.062-0.525-0.175-0.777
			C27.835,21.92,24.468,23.214,20.434,23.214z"/>
	</g>
</g>
</svg>
