<?xml version="1.0" encoding="utf-8"?>
<!-- Generator: Adobe Illustrator 16.0.0, SVG Export Plug-In . SVG Version: 6.00 Build 0)  -->
<!DOCTYPE svg PUBLIC "-//W3C//DTD SVG 1.1//EN" "http://www.w3.org/Graphics/SVG/1.1/DTD/svg11.dtd">
<svg version="1.1" id="Layer_1" xmlns="http://www.w3.org/2000/svg" xmlns:xlink="http://www.w3.org/1999/xlink" x="0px" y="0px"
	 width="27.79px" height="18.752px" viewBox="0 0 27.79 18.752" enable-background="new 0 0 27.79 18.752" xml:space="preserve">
<g>
	<g>
		<g>
			<path fill="#FFFFFF" d="M27.734,3.735l-0.014-2.175c0-0.865-0.709-1.567-1.575-1.561L1.563,0.1C0.697,0.105,0,0.811,0,1.673
				l0.009,2.181L27.734,3.735z"/>
			<path fill="#FFFFFF" d="M0.029,7.899l0.035,9.291c0.004,0.867,0.711,1.567,1.578,1.562l24.583-0.102
				c0.866-0.003,1.565-0.71,1.564-1.575l-0.04-9.29L0.029,7.899z M10.561,15.771c0,0.182-0.145,0.328-0.327,0.33L3.38,16.085
				c-0.182,0-0.331-0.146-0.331-0.328l-0.007-1.565c0-0.184,0.146-0.329,0.329-0.329l6.854,0.014
				c0.181-0.002,0.329,0.146,0.33,0.327L10.561,15.771z"/>
		</g>
	</g>
</g>
</svg>
